<svg width="22" height="21" fill="none" xmlns="http://www.w3.org/2000/svg"><path d="M8.562 3.615C9.487 1.33 9.95.189 10.7.03c.198-.041.402-.041.6 0 .75.158 1.213 1.3 2.138 3.584.526 1.299.789 1.948 1.28 2.39.139.123.288.234.448.329.569.34 1.278.402 2.698.528 2.403.214 3.605.32 3.972.999.076.14.128.293.153.45.122.76-.762 1.557-2.529 3.15l-.49.441c-.826.745-1.24 1.117-1.478 1.581-.143.28-.24.58-.285.889-.075.516.046 1.056.288 2.136l.087.386c.433 1.936.65 2.905.38 3.38a1.442 1.442 0 0 1-1.186.725c-.551.026-1.328-.6-2.88-1.854-1.023-.825-1.534-1.238-2.102-1.4a2.908 2.908 0 0 0-1.588 0c-.568.162-1.08.575-2.102 1.4C6.552 20.4 5.775 21.025 5.224 21a1.442 1.442 0 0 1-1.186-.724c-.27-.476-.053-1.445.38-3.381l.087-.386c.242-1.08.363-1.62.288-2.136a2.835 2.835 0 0 0-.285-.889c-.239-.464-.652-.836-1.478-1.58l-.49-.443C.773 9.868-.11 9.072.01 8.311c.025-.157.077-.31.153-.45.367-.679 1.569-.785 3.972-.999 1.42-.126 2.13-.189 2.698-.528.16-.095.31-.206.447-.33.492-.441.755-1.09 1.281-2.39Z" fill="#33D1B5"/></svg>