<svg width="38" height="38" fill="none" xmlns="http://www.w3.org/2000/svg"><path d="M33.727 12.453A3.272 3.272 0 0 1 37 15.726v6.546a3.273 3.273 0 0 1-3.273 3.273H31.99A13.094 13.094 0 0 1 19 37v-3.273a9.818 9.818 0 0 0 9.818-9.819V14.09a9.819 9.819 0 1 0-19.636 0v11.455h-4.91A3.273 3.273 0 0 1 1 22.272v-6.546a3.273 3.273 0 0 1 3.273-3.273H6.01a13.093 13.093 0 0 1 25.978 0h1.738Zm-21.665 12.74 1.734-2.775A9.77 9.77 0 0 0 19 23.908a9.77 9.77 0 0 0 5.204-1.49l1.734 2.775A13.03 13.03 0 0 1 19 27.181a13.03 13.03 0 0 1-6.938-1.988Z" fill="#3E96FC"/></svg>