<svg xml:space="preserve" width="400" height="400" xmlns="http://www.w3.org/2000/svg"><defs><clipPath clipPathUnits="userSpaceOnUse" id="a"><path d="M150 300C67.157 300 0 232.843 0 150S67.157 0 150 0s150 67.157 150 150-67.157 150-150 150z"/></clipPath></defs><g clip-path="url(#a)" transform="matrix(1.33333 0 0 -1.33333 0 400)"><path d="M0 300h570V0H0Z" style="fill:#fff;fill-opacity:1;fill-rule:nonzero;stroke:none"/><path d="M0 300h570v-23.077H0Zm0-46.154h570v-23.077H0Zm0-46.154h570v-23.077H0Zm0-46.154h570v-23.077H0Zm0-46.153h570V92.309H0Zm0-46.154h570V46.154H0Zm0-46.154h570V0H0Z" style="fill:#b22234;fill-opacity:1;fill-rule:nonzero;stroke:none"/><path d="M0 300h228V138.462H0Z" style="fill:#3c3b6e;fill-opacity:1;fill-rule:nonzero;stroke:none"/><path d="m0 0 5.431-3.946-2.074-6.385 5.431 3.946 5.431-3.946-2.075 6.385L17.575 0h-6.713L8.788 6.385 6.713 0Z" style="fill:#fff;fill-opacity:1;fill-rule:nonzero;stroke:none" transform="translate(10.712 286.886)"/><path d="m0 0 5.431-3.946-2.074-6.385 5.431 3.946 5.431-3.946-2.075 6.385L17.575 0h-6.713L8.788 6.385 6.713 0Z" style="fill:#fff;fill-opacity:1;fill-rule:nonzero;stroke:none" transform="translate(48.512 286.886)"/><path d="m0 0 5.431-3.946-2.074-6.385 5.431 3.946 5.431-3.946-2.075 6.385L17.575 0h-6.713L8.788 6.385 6.713 0Z" style="fill:#fff;fill-opacity:1;fill-rule:nonzero;stroke:none" transform="translate(86.312 286.886)"/><path d="m0 0 5.431-3.946-2.074-6.385 5.431 3.946 5.431-3.946-2.075 6.385L17.575 0h-6.713L8.788 6.385 6.713 0Z" style="fill:#fff;fill-opacity:1;fill-rule:nonzero;stroke:none" transform="translate(124.112 286.886)"/><path d="m0 0 5.431-3.946-2.074-6.385 5.431 3.946 5.431-3.946-2.075 6.385L17.575 0h-6.713L8.788 6.385 6.713 0Z" style="fill:#fff;fill-opacity:1;fill-rule:nonzero;stroke:none" transform="translate(161.912 286.886)"/><path d="m0 0 5.431-3.946-2.074-6.385 5.431 3.946 5.431-3.946-2.075 6.385L17.575 0h-6.713L8.788 6.385 6.713 0Z" style="fill:#fff;fill-opacity:1;fill-rule:nonzero;stroke:none" transform="translate(199.712 286.886)"/><path d="m0 0 5.431-3.946-2.074-6.385 5.431 3.946 5.431-3.946-2.075 6.385L17.575 0h-6.713L8.788 6.385 6.713 0Z" style="fill:#fff;fill-opacity:1;fill-rule:nonzero;stroke:none" transform="translate(29.612 270.686)"/><path d="m0 0 5.431-3.946-2.074-6.385 5.431 3.946 5.431-3.946-2.075 6.385L17.575 0h-6.713L8.788 6.385 6.713 0Z" style="fill:#fff;fill-opacity:1;fill-rule:nonzero;stroke:none" transform="translate(67.412 270.686)"/><path d="m0 0 5.431-3.946-2.074-6.385 5.431 3.946 5.431-3.946-2.075 6.385L17.575 0h-6.713L8.788 6.385 6.713 0Z" style="fill:#fff;fill-opacity:1;fill-rule:nonzero;stroke:none" transform="translate(105.212 270.686)"/><path d="m0 0 5.431-3.946-2.074-6.385 5.431 3.946 5.431-3.946-2.075 6.385L17.575 0h-6.713L8.788 6.385 6.713 0Z" style="fill:#fff;fill-opacity:1;fill-rule:nonzero;stroke:none" transform="translate(143.012 270.686)"/><path d="m0 0 5.431-3.946-2.074-6.385 5.431 3.946 5.431-3.946-2.075 6.385L17.575 0h-6.713L8.788 6.385 6.713 0Z" style="fill:#fff;fill-opacity:1;fill-rule:nonzero;stroke:none" transform="translate(180.811 270.686)"/><path d="m0 0 5.431-3.946-2.074-6.385 5.431 3.946 5.431-3.946-2.075 6.385L17.575 0h-6.713L8.788 6.385 6.713 0Z" style="fill:#fff;fill-opacity:1;fill-rule:nonzero;stroke:none" transform="translate(10.712 254.485)"/><path d="m0 0 5.431-3.946-2.074-6.385 5.431 3.946 5.431-3.946-2.075 6.385L17.575 0h-6.713L8.788 6.385 6.713 0Z" style="fill:#fff;fill-opacity:1;fill-rule:nonzero;stroke:none" transform="translate(48.512 254.485)"/><path d="m0 0 5.431-3.946-2.074-6.385 5.431 3.946 5.431-3.946-2.075 6.385L17.575 0h-6.713L8.788 6.385 6.713 0Z" style="fill:#fff;fill-opacity:1;fill-rule:nonzero;stroke:none" transform="translate(86.312 254.485)"/><path d="m0 0 5.431-3.946-2.074-6.385 5.431 3.946 5.431-3.946-2.075 6.385L17.575 0h-6.713L8.788 6.385 6.713 0Z" style="fill:#fff;fill-opacity:1;fill-rule:nonzero;stroke:none" transform="translate(124.112 254.485)"/><path d="m0 0 5.431-3.946-2.074-6.385 5.431 3.946 5.431-3.946-2.075 6.385L17.575 0h-6.713L8.788 6.385 6.713 0Z" style="fill:#fff;fill-opacity:1;fill-rule:nonzero;stroke:none" transform="translate(161.912 254.485)"/><path d="m0 0 5.431-3.946-2.074-6.385 5.431 3.946 5.431-3.946-2.075 6.385L17.575 0h-6.713L8.788 6.385 6.713 0Z" style="fill:#fff;fill-opacity:1;fill-rule:nonzero;stroke:none" transform="translate(199.712 254.485)"/><path d="m0 0 5.431-3.946-2.074-6.385 5.431 3.946 5.431-3.946-2.075 6.385L17.575 0h-6.713L8.788 6.385 6.713 0Z" style="fill:#fff;fill-opacity:1;fill-rule:nonzero;stroke:none" transform="translate(30.078 238.232)"/><path d="m0 0 5.431-3.946-2.074-6.385 5.431 3.946 5.431-3.946-2.075 6.385L17.575 0h-6.713L8.788 6.385 6.713 0Z" style="fill:#fff;fill-opacity:1;fill-rule:nonzero;stroke:none" transform="translate(67.878 238.232)"/><path d="m0 0 5.431-3.946-2.074-6.385 5.431 3.946 5.431-3.946-2.075 6.385L17.575 0h-6.713L8.788 6.385 6.713 0Z" style="fill:#fff;fill-opacity:1;fill-rule:nonzero;stroke:none" transform="translate(105.678 238.232)"/><path d="m0 0 5.431-3.946-2.074-6.385 5.431 3.946 5.431-3.946-2.075 6.385L17.575 0h-6.713L8.788 6.385 6.713 0Z" style="fill:#fff;fill-opacity:1;fill-rule:nonzero;stroke:none" transform="translate(143.478 238.232)"/><path d="m0 0 5.431-3.946-2.074-6.385 5.431 3.946 5.431-3.946-2.075 6.385L17.575 0h-6.713L8.788 6.385 6.713 0Z" style="fill:#fff;fill-opacity:1;fill-rule:nonzero;stroke:none" transform="translate(181.278 238.232)"/><path d="m0 0 5.431-3.946-2.074-6.385 5.431 3.946 5.431-3.946-2.075 6.385L17.575 0h-6.713L8.788 6.385 6.713 0Z" style="fill:#fff;fill-opacity:1;fill-rule:nonzero;stroke:none" transform="translate(11.286 222.168)"/><path d="m0 0 5.431-3.946-2.074-6.385 5.431 3.946 5.431-3.946-2.075 6.385L17.575 0h-6.713L8.788 6.385 6.713 0Z" style="fill:#fff;fill-opacity:1;fill-rule:nonzero;stroke:none" transform="translate(49.085 222.168)"/><path d="m0 0 5.431-3.946-2.074-6.385 5.431 3.946 5.431-3.946-2.075 6.385L17.575 0h-6.713L8.788 6.385 6.713 0Z" style="fill:#fff;fill-opacity:1;fill-rule:nonzero;stroke:none" transform="translate(86.885 222.168)"/><path d="m0 0 5.431-3.946-2.074-6.385 5.431 3.946 5.431-3.946-2.075 6.385L17.575 0h-6.713L8.788 6.385 6.713 0Z" style="fill:#fff;fill-opacity:1;fill-rule:nonzero;stroke:none" transform="translate(124.686 222.168)"/><path d="m0 0 5.431-3.946-2.074-6.385 5.431 3.946 5.431-3.946-2.075 6.385L17.575 0h-6.713L8.788 6.385 6.713 0Z" style="fill:#fff;fill-opacity:1;fill-rule:nonzero;stroke:none" transform="translate(162.485 222.168)"/><path d="m0 0 5.431-3.946-2.074-6.385 5.431 3.946 5.431-3.946-2.075 6.385L17.575 0h-6.713L8.788 6.385 6.713 0Z" style="fill:#fff;fill-opacity:1;fill-rule:nonzero;stroke:none" transform="translate(200.285 222.168)"/><path d="m0 0 5.431-3.946-2.074-6.385 5.431 3.946 5.431-3.946-2.075 6.385L17.575 0h-6.713L8.788 6.385 6.713 0Z" style="fill:#fff;fill-opacity:1;fill-rule:nonzero;stroke:none" transform="translate(11.64 190.28)"/><path d="m0 0 5.431-3.946-2.074-6.385 5.431 3.946 5.431-3.946-2.075 6.385L17.575 0h-6.713L8.788 6.385 6.713 0Z" style="fill:#fff;fill-opacity:1;fill-rule:nonzero;stroke:none" transform="translate(49.44 190.28)"/><path d="m0 0 5.431-3.946-2.074-6.385 5.431 3.946 5.431-3.946-2.075 6.385L17.575 0h-6.713L8.788 6.385 6.713 0Z" style="fill:#fff;fill-opacity:1;fill-rule:nonzero;stroke:none" transform="translate(87.24 190.28)"/><path d="m0 0 5.431-3.946-2.074-6.385 5.431 3.946 5.431-3.946-2.075 6.385L17.575 0h-6.713L8.788 6.385 6.713 0Z" style="fill:#fff;fill-opacity:1;fill-rule:nonzero;stroke:none" transform="translate(125.04 190.28)"/><path d="m0 0 5.431-3.946-2.074-6.385 5.431 3.946 5.431-3.946-2.075 6.385L17.575 0h-6.713L8.788 6.385 6.713 0Z" style="fill:#fff;fill-opacity:1;fill-rule:nonzero;stroke:none" transform="translate(162.84 190.28)"/><path d="m0 0 5.431-3.946-2.074-6.385 5.431 3.946 5.431-3.946-2.075 6.385L17.575 0h-6.713L8.788 6.385 6.713 0Z" style="fill:#fff;fill-opacity:1;fill-rule:nonzero;stroke:none" transform="translate(200.64 190.28)"/><path d="m0 0 5.431-3.946-2.074-6.385 5.431 3.946 5.431-3.946-2.075 6.385L17.575 0h-6.713L8.788 6.385 6.713 0Z" style="fill:#fff;fill-opacity:1;fill-rule:nonzero;stroke:none" transform="translate(11.178 158.018)"/><path d="m0 0 5.431-3.946-2.074-6.385 5.431 3.946 5.431-3.946-2.075 6.385L17.575 0h-6.713L8.788 6.385 6.713 0Z" style="fill:#fff;fill-opacity:1;fill-rule:nonzero;stroke:none" transform="translate(48.978 158.018)"/><path d="m0 0 5.431-3.946-2.074-6.385 5.431 3.946 5.431-3.946-2.075 6.385L17.575 0h-6.713L8.788 6.385 6.713 0Z" style="fill:#fff;fill-opacity:1;fill-rule:nonzero;stroke:none" transform="translate(86.778 158.018)"/><path d="m0 0 5.431-3.946-2.074-6.385 5.431 3.946 5.431-3.946-2.075 6.385L17.575 0h-6.713L8.788 6.385 6.713 0Z" style="fill:#fff;fill-opacity:1;fill-rule:nonzero;stroke:none" transform="translate(124.578 158.018)"/><path d="m0 0 5.431-3.946-2.074-6.385 5.431 3.946 5.431-3.946-2.075 6.385L17.575 0h-6.713L8.788 6.385 6.713 0Z" style="fill:#fff;fill-opacity:1;fill-rule:nonzero;stroke:none" transform="translate(162.378 158.018)"/><path d="m0 0 5.431-3.946-2.074-6.385 5.431 3.946 5.431-3.946-2.075 6.385L17.575 0h-6.713L8.788 6.385 6.713 0Z" style="fill:#fff;fill-opacity:1;fill-rule:nonzero;stroke:none" transform="translate(200.178 158.018)"/><path d="m0 0 5.431-3.946-2.074-6.385 5.431 3.946 5.431-3.946-2.075 6.385L17.575 0h-6.713L8.788 6.385 6.713 0Z" style="fill:#fff;fill-opacity:1;fill-rule:nonzero;stroke:none" transform="translate(30.19 206.384)"/><path d="m0 0 5.431-3.946-2.074-6.385 5.431 3.946 5.431-3.946-2.075 6.385L17.575 0h-6.713L8.788 6.385 6.713 0Z" style="fill:#fff;fill-opacity:1;fill-rule:nonzero;stroke:none" transform="translate(67.99 206.384)"/><path d="m0 0 5.431-3.946-2.074-6.385 5.431 3.946 5.431-3.946-2.075 6.385L17.575 0h-6.713L8.788 6.385 6.713 0Z" style="fill:#fff;fill-opacity:1;fill-rule:nonzero;stroke:none" transform="translate(105.79 206.384)"/><path d="m0 0 5.431-3.946-2.074-6.385 5.431 3.946 5.431-3.946-2.075 6.385L17.575 0h-6.713L8.788 6.385 6.713 0Z" style="fill:#fff;fill-opacity:1;fill-rule:nonzero;stroke:none" transform="translate(143.59 206.384)"/><path d="m0 0 5.431-3.946-2.074-6.385 5.431 3.946 5.431-3.946-2.075 6.385L17.575 0h-6.713L8.788 6.385 6.713 0Z" style="fill:#fff;fill-opacity:1;fill-rule:nonzero;stroke:none" transform="translate(181.39 206.384)"/><path d="m0 0 5.431-3.946-2.074-6.385 5.431 3.946 5.431-3.946-2.075 6.385L17.575 0h-6.713L8.788 6.385 6.713 0Z" style="fill:#fff;fill-opacity:1;fill-rule:nonzero;stroke:none" transform="translate(30.078 174.172)"/><path d="m0 0 5.431-3.946-2.074-6.385 5.431 3.946 5.431-3.946-2.075 6.385L17.575 0h-6.713L8.788 6.385 6.713 0Z" style="fill:#fff;fill-opacity:1;fill-rule:nonzero;stroke:none" transform="translate(67.879 174.172)"/><path d="m0 0 5.431-3.946-2.074-6.385 5.431 3.946 5.431-3.946-2.075 6.385L17.575 0h-6.713L8.788 6.385 6.713 0Z" style="fill:#fff;fill-opacity:1;fill-rule:nonzero;stroke:none" transform="translate(105.679 174.172)"/><path d="m0 0 5.431-3.946-2.074-6.385 5.431 3.946 5.431-3.946-2.075 6.385L17.575 0h-6.713L8.788 6.385 6.713 0Z" style="fill:#fff;fill-opacity:1;fill-rule:nonzero;stroke:none" transform="translate(143.478 174.172)"/><path d="m0 0 5.431-3.946-2.074-6.385 5.431 3.946 5.431-3.946-2.075 6.385L17.575 0h-6.713L8.788 6.385 6.713 0Z" style="fill:#fff;fill-opacity:1;fill-rule:nonzero;stroke:none" transform="translate(181.278 174.172)"/></g></svg>