<svg width="16" height="16" fill="none" xmlns="http://www.w3.org/2000/svg"><mask id="a" style="mask-type:alpha" maskUnits="userSpaceOnUse" x="0" y="0" width="16" height="16"><circle cx="8" cy="8" r="8" fill="#C4C4C4"/></mask><g mask="url(#a)"><path d="M0 10.667h24V16H0v-5.333Z" fill="#1EB53A"/><path d="M0 0h24v5.333H0V0Z" fill="#0099B5"/><path d="M0 5.12h24v5.76H0V5.12Z" fill="#CE1126"/><path d="M0 5.44h24v5.12H0V5.44ZM5.04 4.48c1.193 0 2.16-.86 2.16-1.92S6.233.64 5.04.64s-2.16.86-2.16 1.92.967 1.92 2.16 1.92Z" fill="#fff"/><path d="M5.76 4.48c1.193 0 2.16-.86 2.16-1.92S6.953.64 5.76.64 3.6 1.5 3.6 2.56s.967 1.92 2.16 1.92Z" fill="#0099B5"/><path d="m6.83 2.602-.136.364.209.064" fill="#fff"/><path d="m6.83 2.602.138.364-.21.064" fill="#fff"/><path d="m7.242 2.867-.433-.003-.004.196" fill="#fff"/><path d="m7.242 2.867-.348.228-.133-.156" fill="#fff"/><path d="m6.42 2.867.348.228.133-.156" fill="#fff"/><path d="m6.42 2.867.432-.003.004.196" fill="#fff"/><path d="m7.085 3.296-.13-.366-.212.057" fill="#fff"/><path d="m7.085 3.296-.352-.223.126-.161" fill="#fff"/><path d="m6.577 3.296.352-.223-.127-.161" fill="#fff"/><path d="m6.577 3.296.13-.366.212.057" fill="#fff"/><path d="m6.83 2.602-.136.364.209.064" fill="#fff"/><path d="m6.83 2.602.138.364-.21.064" fill="#fff"/><path d="m7.242 2.867-.433-.003-.004.196" fill="#fff"/><path d="m7.242 2.867-.348.228-.133-.156" fill="#fff"/><path d="m6.42 2.867.348.228.133-.156" fill="#fff"/><path d="m6.42 2.867.432-.003.004.196" fill="#fff"/><path d="m7.085 3.296-.13-.366-.212.057" fill="#fff"/><path d="m7.085 3.296-.352-.223.126-.161" fill="#fff"/><path d="m6.577 3.296.352-.223-.127-.161" fill="#fff"/><path d="m6.577 3.296.13-.366.212.057" fill="#fff"/><path d="m6.83 2.602-.136.364.209.064" fill="#fff"/><path d="m6.83 2.602.138.364-.21.064" fill="#fff"/><path d="m7.242 2.867-.433-.003-.004.196" fill="#fff"/><path d="m7.242 2.867-.348.228-.133-.156" fill="#fff"/><path d="m6.42 2.867.348.228.133-.156" fill="#fff"/><path d="m6.42 2.867.432-.003.004.196" fill="#fff"/><path d="m7.085 3.296-.13-.366-.212.057" fill="#fff"/><path d="m7.085 3.296-.352-.223.126-.161" fill="#fff"/><path d="m6.577 3.296.352-.223-.127-.161" fill="#fff"/><path d="m6.577 3.296.13-.366.212.057" fill="#fff"/><path d="m6.83 2.602-.136.364.209.064" fill="#fff"/><path d="m6.83 2.602.138.364-.21.064" fill="#fff"/><path d="m7.242 2.867-.433-.003-.004.196" fill="#fff"/><path d="m7.242 2.867-.348.228-.133-.156" fill="#fff"/><path d="m6.42 2.867.348.228.133-.156" fill="#fff"/><path d="m6.42 2.867.432-.003.004.196" fill="#fff"/><path d="m7.085 3.296-.13-.366-.212.057" fill="#fff"/><path d="m7.085 3.296-.352-.223.126-.161" fill="#fff"/><path d="m6.577 3.296.352-.223-.127-.161" fill="#fff"/><path d="m6.577 3.296.13-.366.212.057" fill="#fff"/><path d="m6.83 2.602-.136.364.209.064" fill="#fff"/><path d="m6.83 2.602.138.364-.21.064" fill="#fff"/><path d="m7.242 2.867-.433-.003-.004.196" fill="#fff"/><path d="m7.242 2.867-.348.228-.133-.156" fill="#fff"/><path d="m6.42 2.867.348.228.133-.156" fill="#fff"/><path d="m6.42 2.867.432-.003.004.196" fill="#fff"/><path d="m7.085 3.296-.13-.366-.212.057" fill="#fff"/><path d="m7.085 3.296-.352-.223.126-.161" fill="#fff"/><path d="m6.577 3.296.352-.223-.127-.161" fill="#fff"/><path d="m6.577 3.296.13-.366.212.057" fill="#fff"/><path d="m6.83 2.602-.136.364.209.064" fill="#fff"/><path d="m6.83 2.602.138.364-.21.064" fill="#fff"/><path d="m7.242 2.867-.433-.003-.004.196" fill="#fff"/><path d="m7.242 2.867-.348.228-.133-.156" fill="#fff"/><path d="m6.42 2.867.348.228.133-.156" fill="#fff"/><path d="m6.42 2.867.432-.003.004.196" fill="#fff"/><path d="m7.085 3.296-.13-.366-.212.057" fill="#fff"/><path d="m7.085 3.296-.352-.223.126-.161" fill="#fff"/><path d="m6.577 3.296.352-.223-.127-.161" fill="#fff"/><path d="m6.577 3.296.13-.366.212.057" fill="#fff"/><path d="m6.83 2.602-.136.364.209.064" fill="#fff"/><path d="m6.83 2.602.138.364-.21.064" fill="#fff"/><path d="m7.242 2.867-.433-.003-.004.196" fill="#fff"/><path d="m7.242 2.867-.348.228-.133-.156" fill="#fff"/><path d="m6.42 2.867.348.228.133-.156" fill="#fff"/><path d="m6.42 2.867.432-.003.004.196" fill="#fff"/><path d="m7.085 3.296-.13-.366-.212.057" fill="#fff"/><path d="m7.085 3.296-.352-.223.126-.161" fill="#fff"/><path d="m6.577 3.296.352-.223-.127-.161" fill="#fff"/><path d="m6.577 3.296.13-.366.212.057" fill="#fff"/><path d="m6.83 2.602-.136.364.209.064" fill="#fff"/><path d="m6.83 2.602.138.364-.21.064" fill="#fff"/><path d="m7.242 2.867-.433-.003-.004.196" fill="#fff"/><path d="m7.242 2.867-.348.228-.133-.156" fill="#fff"/><path d="m6.42 2.867.348.228.133-.156" fill="#fff"/><path d="m6.42 2.867.432-.003.004.196" fill="#fff"/><path d="m7.085 3.296-.13-.366-.212.057" fill="#fff"/><path d="m7.085 3.296-.352-.223.126-.161" fill="#fff"/><path d="m6.577 3.296.352-.223-.127-.161" fill="#fff"/><path d="m6.577 3.296.13-.366.212.057" fill="#fff"/><path d="m6.83 2.602-.136.364.209.064" fill="#fff"/><path d="m6.83 2.602.138.364-.21.064" fill="#fff"/><path d="m7.242 2.867-.433-.003-.004.196" fill="#fff"/><path d="m7.242 2.867-.348.228-.133-.156" fill="#fff"/><path d="m6.42 2.867.348.228.133-.156" fill="#fff"/><path d="m6.42 2.867.432-.003.004.196" fill="#fff"/><path d="m7.085 3.296-.13-.366-.212.057" fill="#fff"/><path d="m7.085 3.296-.352-.223.126-.161" fill="#fff"/><path d="m6.577 3.296.352-.223-.127-.161" fill="#fff"/><path d="m6.577 3.296.13-.366.212.057" fill="#fff"/><path d="m6.83 2.602-.136.364.209.064" fill="#fff"/><path d="m6.83 2.602.138.364-.21.064" fill="#fff"/><path d="m7.242 2.867-.433-.003-.004.196" fill="#fff"/><path d="m7.242 2.867-.348.228-.133-.156" fill="#fff"/><path d="m6.42 2.867.348.228.133-.156" fill="#fff"/><path d="m6.42 2.867.432-.003.004.196" fill="#fff"/><path d="m7.085 3.296-.13-.366-.212.057" fill="#fff"/><path d="m7.085 3.296-.352-.223.126-.161" fill="#fff"/><path d="m6.577 3.296.352-.223-.127-.161" fill="#fff"/><path d="m6.577 3.296.13-.366.212.057" fill="#fff"/><path d="m6.83 2.602-.136.364.209.064" fill="#fff"/><path d="m6.83 2.602.138.364-.21.064" fill="#fff"/><path d="m7.242 2.867-.433-.003-.004.196" fill="#fff"/><path d="m7.242 2.867-.348.228-.133-.156" fill="#fff"/><path d="m6.42 2.867.348.228.133-.156" fill="#fff"/><path d="m6.42 2.867.432-.003.004.196" fill="#fff"/><path d="m7.085 3.296-.13-.366-.212.057" fill="#fff"/><path d="m7.085 3.296-.352-.223.126-.161" fill="#fff"/><path d="m6.577 3.296.352-.223-.127-.161" fill="#fff"/><path d="m6.577 3.296.13-.366.212.057" fill="#fff"/><path d="m6.83 2.602-.136.364.209.064" fill="#fff"/><path d="m6.83 2.602.138.364-.21.064" fill="#fff"/><path d="m7.242 2.867-.433-.003-.004.196" fill="#fff"/><path d="m7.242 2.867-.348.228-.133-.156" fill="#fff"/><path d="m6.42 2.867.348.228.133-.156" fill="#fff"/><path d="m6.42 2.867.432-.003.004.196" fill="#fff"/><path d="m7.085 3.296-.13-.366-.212.057" fill="#fff"/><path d="m7.085 3.296-.352-.223.126-.161" fill="#fff"/><path d="m6.577 3.296.352-.223-.127-.161" fill="#fff"/><path d="m6.577 3.296.13-.366.212.057" fill="#fff"/></g></svg>