<svg width="24" height="24" fill="none" xmlns="http://www.w3.org/2000/svg"><path d="M12 4c1.724 0 3.377.694 4.596 1.929a6.629 6.629 0 0 1 1.904 4.656c0 2.782-1.93 5.815-5.74 9.13a1.158 1.158 0 0 1-1.522-.002l-.252-.221C7.345 16.263 5.5 13.305 5.5 10.585c0-1.747.685-3.421 1.904-4.656A6.458 6.458 0 0 1 12 4Zm0 4.052c-.663 0-1.299.267-1.768.742a2.55 2.55 0 0 0-.732 1.79c0 .673.263 1.317.732 1.792a2.484 2.484 0 0 0 1.768.742c.663 0 1.299-.267 1.768-.742a2.55 2.55 0 0 0 .732-1.791 2.55 2.55 0 0 0-.732-1.791A2.484 2.484 0 0 0 12 8.052Z" fill="#fff" fill-opacity=".65"/></svg>