<svg width="24" height="24" fill="none" xmlns="http://www.w3.org/2000/svg"><path d="m6.5 4.649.875-.452c.82-.423 1.828-.145 2.354.65l1.046 1.582c.456.69.433 1.598-.056 2.245l-1.362 1.802c.263.891.735 1.73 1.414 2.52a7.534 7.534 0 0 0 2.347 1.85l1.847-.984c.7-.372 1.56-.233 2.131.343l1.335 1.343c.667.671.759 1.74.217 2.5l-.58.816a2.67 2.67 0 0 1-2.513 1.115c-2.308-.287-4.673-1.921-7.097-4.902C6.029 12.09 4.88 9.398 5.01 7c.054-1.009.62-1.904 1.49-2.352Z" fill="#fff" fill-opacity=".65"/></svg>    