<svg width="118" height="48" fill="none" xmlns="http://www.w3.org/2000/svg"><g clip-path="url(#a)" fill="#fff"><path d="M12.12 12.13h15.776a18.33 18.33 0 0 1 7.56 1.292 12.674 12.674 0 0 1 4.758 3.79 16.136 16.136 0 0 1 2.721 5.753c.578 2.271.865 4.604.855 6.945.106 3.027-.34 6.049-1.315 8.922a14.679 14.679 0 0 1-3.497 5.302 11.262 11.262 0 0 1-4.798 2.857c-2.057.61-4.189.94-6.337.983H12.068V12.13h.053Zm10.636 8.12v19.578h2.63a10.795 10.795 0 0 0 4.758-.763 5.19 5.19 0 0 0 2.222-2.69 17.42 17.42 0 0 0 .802-6.233c0-3.784-.596-6.37-1.788-7.758-1.192-1.388-3.173-2.087-5.942-2.095l-2.682-.039Z"/><path fill-rule="evenodd" clip-rule="evenodd" d="M51.44 15.13v-2.716h5.26v5.547a10.196 10.196 0 0 1-2.63 1.668 7.567 7.567 0 0 1-2.734.44 5.82 5.82 0 0 1-3.169-.789 5.058 5.058 0 0 1-1.906-2.366 9.01 9.01 0 0 1-.67-3.595 8.59 8.59 0 0 1 .736-3.711 5.201 5.201 0 0 1 2.156-2.393 6.052 6.052 0 0 1 2.997-.633c.92-.046 1.84.085 2.709.388a3.576 3.576 0 0 1 1.498 1.215c.413.635.699 1.342.842 2.082l-3.248.711a2.115 2.115 0 0 0-.696-1.138 1.86 1.86 0 0 0-1.236-.4 2.078 2.078 0 0 0-1 .228 2.04 2.04 0 0 0-.762.677 5.103 5.103 0 0 0-.657 2.922 5.269 5.269 0 0 0 .657 3.013c.208.295.488.534.814.694.326.16.688.238 1.053.224.368.002.734-.064 1.078-.194a6.05 6.05 0 0 0 1.17-.672v-1.203h-2.261ZM63.89 16.81l1.315.22a4.187 4.187 0 0 1-1.144 2.367 3.148 3.148 0 0 1-2.235.802 3.292 3.292 0 0 1-1.515-.32 3.235 3.235 0 0 1-1.193-.974 5.697 5.697 0 0 1-.999-3.595 5.94 5.94 0 0 1 1.039-3.763 3.102 3.102 0 0 1 1.15-.97 3.16 3.16 0 0 1 1.479-.323c.5-.005.994.11 1.439.335a3.05 3.05 0 0 1 1.111.958 5.913 5.913 0 0 1 1 3.647v.427h-5.864c-.01.855.242 1.693.723 2.405.184.257.428.466.712.61.284.144.599.219.918.218a1.816 1.816 0 0 0 1.276-.492c.398-.44.67-.975.788-1.552Zm-4.338-2.586h4.352a3.6 3.6 0 0 0-.5-1.797 1.889 1.889 0 0 0-.647-.655 1.928 1.928 0 0 0-2.521.46 3.224 3.224 0 0 0-.684 1.992Zm7.388 5.677v-9.479h1.183v1.293c.155-.336.377-.637.654-.886a2.804 2.804 0 0 1 3.132-.406c.367.183.673.466.881.814.21.37.353.772.421 1.19.052.52.074 1.042.066 1.564v5.858h-1.315v-5.625a5.209 5.209 0 0 0-.145-1.474 1.526 1.526 0 0 0-.552-.776 1.5 1.5 0 0 0-.933-.336 1.932 1.932 0 0 0-1.46.66 3.715 3.715 0 0 0-.617 2.482v5.173L66.94 19.9Zm13.712-3.09 1.314.22a4.11 4.11 0 0 1-1.143 2.366 3.122 3.122 0 0 1-2.222.802 3.306 3.306 0 0 1-1.522-.318 3.248 3.248 0 0 1-1.2-.976 5.695 5.695 0 0 1-.946-3.633 6.029 6.029 0 0 1 1.012-3.725 3.102 3.102 0 0 1 1.15-.97 3.159 3.159 0 0 1 1.48-.323c.5-.005.994.11 1.438.335.445.225.826.554 1.112.958a5.838 5.838 0 0 1 1 3.647v.427h-5.877a4.103 4.103 0 0 0 .736 2.405c.183.257.427.467.711.611.284.145.6.219.919.216.458.008.9-.159 1.236-.465.412-.442.69-.988.802-1.578Zm-4.338-2.587h4.35a3.6 3.6 0 0 0-.472-1.745 1.877 1.877 0 0 0-.69-.68 1.946 1.946 0 0 0-1.798-.061c-.267.128-.5.315-.68.546a3.302 3.302 0 0 0-.71 1.94Zm7.375 5.677v-9.479h1.183v1.462c.196-.479.482-.917.841-1.293.236-.205.54-.32.855-.324.482.034.941.215 1.314.518l-.473 1.487a1.674 1.674 0 0 0-.96-.324c-.29 0-.568.111-.775.31-.25.24-.424.546-.5.88a7.775 7.775 0 0 0-.21 1.888v4.978l-1.275-.103Zm10.135-1.19c-.4.443-.882.807-1.42 1.074a3.519 3.519 0 0 1-1.459.31 2.525 2.525 0 0 1-1.071-.132 2.49 2.49 0 0 1-.914-.566 2.778 2.778 0 0 1-.697-1.953 3.034 3.034 0 0 1 .263-1.293c.154-.357.388-.675.684-.931.284-.233.61-.413.96-.53a9.34 9.34 0 0 1 1.183-.233 10.89 10.89 0 0 0 2.366-.556v-.427a2.044 2.044 0 0 0-.381-1.37 1.977 1.977 0 0 0-1.512-.544 2.035 2.035 0 0 0-1.394.401 2.568 2.568 0 0 0-.657 1.423l-1.315-.22c.081-.582.283-1.14.592-1.642.284-.43.691-.768 1.17-.97a4.469 4.469 0 0 1 1.801-.336 4.002 4.002 0 0 1 1.643.297c.365.155.682.4.92.711.213.34.352.718.408 1.112.038.49.038.984 0 1.474v2.147c-.024.95.006 1.899.092 2.845.052.396.159.783.316 1.15h-1.315a4.304 4.304 0 0 1-.263-1.189v-.052Zm-.105-3.582a8.589 8.589 0 0 1-2.17.608 4.196 4.196 0 0 0-1.156.31 1.303 1.303 0 0 0-.526.53 1.595 1.595 0 0 0-.184.763 1.44 1.44 0 0 0 .408 1.06 1.516 1.516 0 0 0 1.17.428c.487.011.965-.13 1.366-.4.401-.273.705-.662.869-1.113.17-.517.246-1.06.223-1.604v-.582Zm3.352 4.772V6.8h1.315v13.152L97.07 19.9ZM58.106 40.823v-9.53h1.183v1.358c.2-.487.547-.903.993-1.192a2.662 2.662 0 0 1 1.505-.425c.457 0 .908.106 1.315.31.363.184.664.467.867.815.21.37.353.772.42 1.19.042.542.05 1.086.027 1.63v5.844h-1.314V35.03c.009-.475-.049-.95-.171-1.41a1.435 1.435 0 0 0-.54-.775c-.26-.196-.579-.3-.907-.298a1.891 1.891 0 0 0-1.446.66 3.715 3.715 0 0 0-.617 2.483v5.172l-1.315-.039Zm7.796-2.845 1.314-.258a2.46 2.46 0 0 0 .605 1.474 1.899 1.899 0 0 0 1.407.504 1.762 1.762 0 0 0 1.314-.452 1.434 1.434 0 0 0 .447-1.06 1.02 1.02 0 0 0-.394-.854 5.487 5.487 0 0 0-1.315-.556c-.69-.189-1.36-.445-1.998-.763a2.173 2.173 0 0 1-.841-.905 2.78 2.78 0 0 1-.29-1.293 2.895 2.895 0 0 1 .237-1.177c.141-.343.362-.648.644-.892.245-.214.531-.376.842-.479a3.241 3.241 0 0 1 1.13-.194 3.694 3.694 0 0 1 1.604.336c.42.18.773.483 1.012.867.25.46.401.967.447 1.487l-1.314.22a1.925 1.925 0 0 0-.513-1.164 1.557 1.557 0 0 0-1.183-.414 1.837 1.837 0 0 0-1.315.362 1.189 1.189 0 0 0-.381.867c-.002.196.052.389.158.556.117.19.292.338.5.426.377.159.763.297 1.156.414.666.204 1.316.455 1.946.75.365.193.666.485.867.84.225.432.333.913.316 1.397a3.153 3.153 0 0 1-.381 1.513c-.251.465-.635.847-1.105 1.1a3.317 3.317 0 0 1-1.643.4 3.177 3.177 0 0 1-2.3-.776 3.85 3.85 0 0 1-1.013-2.276h.04Zm13.067 2.845v-1.422a2.7 2.7 0 0 1-.985 1.17 2.765 2.765 0 0 1-1.473.46 2.743 2.743 0 0 1-1.315-.324 2.233 2.233 0 0 1-.88-.815 3.336 3.336 0 0 1-.408-1.202c-.064-.498-.09-1-.08-1.5v-5.897h1.315v5.276c-.015.566.011 1.132.08 1.694.056.38.242.73.525.996.267.245.62.38.986.375a1.926 1.926 0 0 0 1.118-.375 1.98 1.98 0 0 0 .722-1.009c.198-.602.3-1.23.303-1.862v-5.095h1.315v9.53h-1.223Zm3.234 0v-9.53h1.183v1.461c.188-.48.47-.919.828-1.293.235-.21.538-.329.855-.336.483.029.944.21 1.314.517l-.46 1.487a1.674 1.674 0 0 0-.96-.323 1.14 1.14 0 0 0-.775.31 1.905 1.905 0 0 0-.487.88 7.78 7.78 0 0 0-.21 1.888v4.978l-1.288-.039Zm10.057-1.19a4.908 4.908 0 0 1-1.407 1.074 3.44 3.44 0 0 1-1.46.323 2.48 2.48 0 0 1-1.068-.17 2.447 2.447 0 0 1-.89-.606 2.777 2.777 0 0 1-.67-1.952 3.086 3.086 0 0 1 .263-1.293 2.59 2.59 0 0 1 .683-.931c.28-.232.601-.411.947-.53a9.012 9.012 0 0 1 1.17-.233 10.742 10.742 0 0 0 2.353-.556v-.427c.048-.49-.082-.98-.368-1.384a1.95 1.95 0 0 0-1.499-.543 2.062 2.062 0 0 0-1.38.401c-.357.4-.586.895-.658 1.422l-1.314-.22c.073-.579.265-1.138.565-1.642a2.62 2.62 0 0 1 1.17-.957 4.241 4.241 0 0 1 1.775-.375 3.895 3.895 0 0 1 1.63.298c.364.154.678.405.907.724.214.333.353.708.408 1.1.038.494.038.991 0 1.486v2.134c-.025.949.006 1.899.092 2.845.05.396.156.783.315 1.15H92.51a4.335 4.335 0 0 1-.25-1.19v.053Zm-.106-3.581a8.454 8.454 0 0 1-2.155.607c-.395.05-.78.154-1.144.31a1.368 1.368 0 0 0-.526.531 1.594 1.594 0 0 0-.184.763 1.44 1.44 0 0 0 .938 1.403c.199.076.413.11.626.097.471-.002.93-.147 1.315-.414.4-.273.702-.662.868-1.112.17-.517.246-1.06.223-1.603v-.582h.04Zm3.353 4.771v-9.53h1.183v1.358c.198-.481.538-.892.976-1.18a2.66 2.66 0 0 1 1.482-.437c.458-.004.909.103 1.315.31.366.184.672.467.881.815.206.37.344.773.407 1.19.066.523.092 1.05.079 1.578v5.845h-1.315V35.03a5.086 5.086 0 0 0-.184-1.41 1.495 1.495 0 0 0-1.459-1.073 1.933 1.933 0 0 0-1.446.66 3.728 3.728 0 0 0-.605 2.483v5.172l-1.314-.039Zm13.383-3.491 1.314.22a4.434 4.434 0 0 1-1.091 2.534 2.825 2.825 0 0 1-.969.694c-.369.16-.77.242-1.174.237a3.035 3.035 0 0 1-1.442-.327 2.977 2.977 0 0 1-1.108-.966 5.885 5.885 0 0 1-.973-3.66 7.987 7.987 0 0 1 .408-2.663 3.442 3.442 0 0 1 1.314-1.733 3.203 3.203 0 0 1 1.801-.634 2.812 2.812 0 0 1 2.051.789 3.859 3.859 0 0 1 1.039 2.224l-1.315.246a2.72 2.72 0 0 0-.644-1.448 1.505 1.505 0 0 0-1.118-.478 1.89 1.89 0 0 0-.924.223 1.856 1.856 0 0 0-.693.643 4.782 4.782 0 0 0-.631 2.767c-.056.972.167 1.94.645 2.793.161.266.39.487.664.639.275.152.585.23.9.227a1.65 1.65 0 0 0 1.315-.582 3.175 3.175 0 0 0 .657-1.784l-.026.039Zm7.703.4 1.315.22a4.182 4.182 0 0 1-1.183 2.264 3.106 3.106 0 0 1-2.209.815 3.252 3.252 0 0 1-1.474-.334 3.2 3.2 0 0 1-1.155-.96 5.691 5.691 0 0 1-1.025-3.53 6.022 6.022 0 0 1 1.012-3.724c.297-.411.692-.744 1.15-.97a3.177 3.177 0 0 1 1.479-.323c.498-.006.99.109 1.433.334a3.02 3.02 0 0 1 1.104.959 5.922 5.922 0 0 1 .986 3.646v.427h-5.81a4.097 4.097 0 0 0 .723 2.405c.179.258.421.469.703.613.282.145.596.218.914.215.453.008.892-.16 1.222-.466.404-.419.686-.937.815-1.5v-.09Zm-4.312-2.585h4.325a3.595 3.595 0 0 0-.499-1.798 1.849 1.849 0 0 0-.681-.68 1.89 1.89 0 0 0-.936-.25 1.914 1.914 0 0 0-1.525.736 3.415 3.415 0 0 0-.684 1.992Z"/><path d="M55.582 27.698h-3.01v13.177h3.01V27.698Z"/><path fill-rule="evenodd" clip-rule="evenodd" d="M52.913 26.483c.08-.117.42-.272.145-.492-2.261-2.47 1.617-2.832 1.078-4.655 1.538 1.746 2.419 2.586.591 4.72 0 .194.184.284.29.427h-2.104Zm.579-.556c.46-2.25 1.67-1.294.907-3.634-.789 1.888-2.209 1.784-.907 3.634Z"/><path d="M0 0h15.775a18.33 18.33 0 0 1 7.56 1.293 12.538 12.538 0 0 1 4.81 3.88 16.136 16.136 0 0 1 2.722 5.689c.578 2.27.865 4.603.855 6.944a24.898 24.898 0 0 1-1.315 8.91 14.628 14.628 0 0 1-3.497 5.314 11.428 11.428 0 0 1-4.732 2.884 24.025 24.025 0 0 1-6.35.97H0V0Zm10.635 8.108v19.59h2.63a10.795 10.795 0 0 0 4.758-.763 5.19 5.19 0 0 0 2.222-2.69c.638-2.014.905-4.125.789-6.232 0-3.802-.592-6.388-1.788-7.759-1.196-1.37-3.181-2.108-5.942-2.108l-2.669-.038Z"/></g><defs><clipPath id="a"><path fill="#fff" d="M0 0h118v48H0z"/></clipPath></defs></svg>