<svg width="66" height="69" fill="none" xmlns="http://www.w3.org/2000/svg"><g filter="url(#a)"><rect x="11" y="7" width="44" height="44" rx="10" fill="#3E96FC"/></g><path d="M32.026 33.562c0-1.049-.272-1.955-.831-2.692-.845-1.105-2.495-1.247-3.449-1.02-.395-2.338 1.513-5.313 3.98-6.588L29.833 20.5c-3.722 1.842-7.389 6.063-6.762 11.404.396 3.372 2.277 5.596 4.935 5.596 1.159 0 2.127-.354 2.89-1.063.763-.708 1.131-1.671 1.131-2.875Zm10.974 0c0-1.049-.273-1.955-.831-2.692-.86-1.105-2.495-1.247-3.45-1.02-.395-2.338 1.514-5.313 3.981-6.588L40.805 20.5c-3.721 1.842-7.374 6.063-6.747 11.404.395 3.372 2.263 5.596 4.92 5.596 1.16 0 2.127-.354 2.89-1.063.764-.708 1.132-1.671 1.132-2.875Z" fill="#fff"/><defs><filter id="a" x="0" y=".4" width="66" height="68.6" filterUnits="userSpaceOnUse" color-interpolation-filters="sRGB"><feFlood flood-opacity="0" result="BackgroundImageFix"/><feColorMatrix in="SourceAlpha" values="0 0 0 0 0 0 0 0 0 0 0 0 0 0 0 0 0 0 127 0" result="hardAlpha"/><feMorphology radius="1" in="SourceAlpha" result="effect1_dropShadow_65_195"/><feOffset dy="4.4"/><feGaussianBlur stdDeviation="6"/><feComposite in2="hardAlpha" operator="out"/><feColorMatrix values="0 0 0 0 0.243137 0 0 0 0 0.588235 0 0 0 0 0.988235 0 0 0 0.06 0"/><feBlend in2="BackgroundImageFix" result="effect1_dropShadow_65_195"/><feColorMatrix in="SourceAlpha" values="0 0 0 0 0 0 0 0 0 0 0 0 0 0 0 0 0 0 127 0" result="hardAlpha"/><feMorphology radius="8" in="SourceAlpha" result="effect2_dropShadow_65_195"/><feOffset dy="8"/><feGaussianBlur stdDeviation="9"/><feComposite in2="hardAlpha" operator="out"/><feColorMatrix values="0 0 0 0 0.243137 0 0 0 0 0.588235 0 0 0 0 0.988235 0 0 0 0.9 0"/><feBlend in2="effect1_dropShadow_65_195" result="effect2_dropShadow_65_195"/><feBlend in="SourceGraphic" in2="effect2_dropShadow_65_195" result="shape"/></filter></defs></svg>