<svg width="38" height="38" fill="none" xmlns="http://www.w3.org/2000/svg"><path d="M20.8 11.8a5.4 5.4 0 0 1 5.4 5.4 1.8 1.8 0 1 0 3.6 0 9 9 0 0 0-9-9 1.8 1.8 0 0 0 0 3.6Z" fill="#3E96FC"/><path d="M20.8 4.6a12.6 12.6 0 0 1 12.6 12.6 1.8 1.8 0 1 0 3.6 0A16.2 16.2 0 0 0 20.8 1a1.8 1.8 0 0 0 0 3.6Zm15.75 21.438a1.8 1.8 0 0 0-1.296-1.17l-10.8-2.466a1.8 1.8 0 0 0-1.656.468c-.252.234-.27.252-1.44 2.484a17.838 17.838 0 0 1-8.766-8.802c2.286-1.152 2.304-1.152 2.538-1.422a1.8 1.8 0 0 0 .468-1.656L13.132 2.8a1.8 1.8 0 0 0-1.17-1.296 6.822 6.822 0 0 0-1.296-.324A7.092 7.092 0 0 0 9.28 1 8.28 8.28 0 0 0 1 9.28 27.756 27.756 0 0 0 28.72 37 8.28 8.28 0 0 0 37 28.72c0-.458-.036-.916-.108-1.368a7.818 7.818 0 0 0-.342-1.314ZM28.72 33.4A24.138 24.138 0 0 1 4.6 9.28 4.698 4.698 0 0 1 9.28 4.6h.594l1.926 8.352-.972.504c-1.548.81-2.772 1.458-2.124 2.862a21.33 21.33 0 0 0 12.924 12.978c1.512.612 2.106-.522 2.916-2.088l.522-.99 8.334 1.908v.594a4.697 4.697 0 0 1-4.68 4.68Z" fill="#3E96FC"/></svg>